<?xml version="1.0" encoding="utf-8"?>
<!-- Generator: Adobe Illustrator 19.0.0, SVG Export Plug-In . SVG Version: 6.00 Build 0)  -->
<svg version="1.1" id="Layer_1" xmlns="http://www.w3.org/2000/svg" xmlns:xlink="http://www.w3.org/1999/xlink" x="0px" y="0px"
	 width="1024px" height="1024px" viewBox="0 0 1024 1024" style="enable-background:new 0 0 1024 1024;" xml:space="preserve">
<style type="text/css">
	.st0{clip-path:url(#SVGID_2_);}
	.st1{clip-path:url(#SVGID_4_);fill:url(#SVGID_5_);}
	.st2{opacity:0.21;clip-path:url(#SVGID_7_);}
	.st3{clip-path:url(#SVGID_9_);}
	.st4{filter:url(#Adobe_OpacityMaskFilter);}
	.st5{clip-path:url(#SVGID_11_);fill:url(#SVGID_13_);}
	.st6{clip-path:url(#SVGID_11_);mask:url(#SVGID_12_);fill:url(#SVGID_14_);}
	.st7{clip-path:url(#SVGID_16_);}
	.st8{fill:#FFFFFF;}
	.st9{fill:#333333;}
	.st10{fill:#2A90CE;}
	.st11{opacity:0.21;clip-path:url(#SVGID_18_);}
	.st12{clip-path:url(#SVGID_20_);}
	.st13{filter:url(#Adobe_OpacityMaskFilter_1_);}
	.st14{clip-path:url(#SVGID_22_);fill:url(#SVGID_24_);}
	.st15{clip-path:url(#SVGID_22_);mask:url(#SVGID_23_);}
	.st16{clip-path:url(#SVGID_26_);}
	.st17{fill:url(#SVGID_27_);}
</style>
<g>
	<defs>
		<rect id="SVGID_1_" width="1024" height="1024"/>
	</defs>
	<clipPath id="SVGID_2_">
		<use xlink:href="#SVGID_1_"  style="overflow:visible;"/>
	</clipPath>
	<g class="st0">
		<defs>
			<path id="SVGID_3_" d="M225,0C100.7,0,0,100.7,0,225v574c0,124.3,100.7,225,225,225h574c124.3,0,225-100.7,225-225V225
				C1024,100.7,923.3,0,799,0H225z"/>
		</defs>
		<clipPath id="SVGID_4_">
			<use xlink:href="#SVGID_3_"  style="overflow:visible;"/>
		</clipPath>
		
			<linearGradient id="SVGID_5_" gradientUnits="userSpaceOnUse" x1="1595.5078" y1="2088.5908" x2="1596.5078" y2="2088.5908" gradientTransform="matrix(813.3241 936.7751 936.7751 -813.3241 -3254078 204137.4531)">
			<stop  offset="0" style="stop-color:#2F93CE"/>
			<stop  offset="0.2713" style="stop-color:#2F93CE"/>
			<stop  offset="1" style="stop-color:#2757AB"/>
		</linearGradient>
		<polygon class="st1" points="583.9,-506.9 1530.9,583.9 440.1,1530.9 -506.9,440.1 		"/>
	</g>
	<g class="st0">
		<defs>
			<path id="SVGID_6_" d="M225,0C100.7,0,0,100.7,0,225v574c0,124.3,100.7,225,225,225h574c124.3,0,225-100.7,225-225V225
				C1024,100.7,923.3,0,799,0H225z"/>
		</defs>
		<clipPath id="SVGID_7_">
			<use xlink:href="#SVGID_6_"  style="overflow:visible;"/>
		</clipPath>
		<g class="st2">
			<g>
				<defs>
					<rect id="SVGID_8_" x="210" y="192.2" width="834" height="880.5"/>
				</defs>
				<clipPath id="SVGID_9_">
					<use xlink:href="#SVGID_8_"  style="overflow:visible;"/>
				</clipPath>
				<g class="st3">
					<defs>
						<polygon id="SVGID_10_" points="212,797 497.1,1082.1 1044,1031.2 1045.4,424 818.4,197.1 649,192.2 345,192.2 210,316.9 
							210,644.5 						"/>
					</defs>
					<clipPath id="SVGID_11_">
						<use xlink:href="#SVGID_10_"  style="overflow:visible;"/>
					</clipPath>
					<defs>
						<filter id="Adobe_OpacityMaskFilter" filterUnits="userSpaceOnUse" x="-223.2" y="-218" width="1700.3" height="1701.1">
							<feColorMatrix  type="matrix" values="1 0 0 0 0  0 1 0 0 0  0 0 1 0 0  0 0 0 1 0"/>
						</filter>
					</defs>
					<mask maskUnits="userSpaceOnUse" x="-223.2" y="-218" width="1700.3" height="1701.1" id="SVGID_12_">
						<g class="st4">
							
								<linearGradient id="SVGID_13_" gradientUnits="userSpaceOnUse" x1="1598.9481" y1="2089.5913" x2="1599.9481" y2="2089.5913" gradientTransform="matrix(-605.5482 -725.4587 -725.4587 605.5482 2485078.25 -104386.75)">
								<stop  offset="0" style="stop-color:#000000"/>
								<stop  offset="3.743610e-002" style="stop-color:#000000"/>
								<stop  offset="1" style="stop-color:#FFFFFF"/>
							</linearGradient>
							<polygon class="st5" points="552.5,1483 -223.2,553.8 701.5,-218 1477.2,711.2 							"/>
						</g>
					</mask>
					
						<linearGradient id="SVGID_14_" gradientUnits="userSpaceOnUse" x1="1598.9481" y1="2089.5913" x2="1599.9481" y2="2089.5913" gradientTransform="matrix(-605.5482 -725.4588 -725.4588 605.5482 2485078.5 -104386.7813)">
						<stop  offset="0" style="stop-color:#000000"/>
						<stop  offset="3.743610e-002" style="stop-color:#000000"/>
						<stop  offset="1" style="stop-color:#000000"/>
					</linearGradient>
					<polygon class="st6" points="552.5,1483 -223.2,553.8 701.5,-218 1477.2,711.2 					"/>
				</g>
			</g>
		</g>
	</g>
	<g class="st0">
		<defs>
			<rect id="SVGID_15_" width="1024" height="1024"/>
		</defs>
		<clipPath id="SVGID_16_">
			<use xlink:href="#SVGID_15_"  style="overflow:visible;"/>
		</clipPath>
		<g class="st7">
			<g>
				<path class="st8" d="M200,628V253c0-39,31.7-70.7,70.7-70.7h375V628H200z"/>
			</g>
			<g>
				<path class="st8" d="M635.8,192.2V618L210,618V253c0-33.4,27.3-60.7,60.7-60.7L635.8,192.2 M655.8,172.2h-20l-365,0
					c-44.5,0-80.7,36.2-80.7,80.7v365v20h20l425.8,0h20v-20V192.2V172.2L655.8,172.2z"/>
			</g>
		</g>
		<g class="st7">
			<g>
				<path class="st9" d="M645.8,812.9V628h184.9v114.1c0,39-31.7,70.7-70.7,70.7H645.8z"/>
			</g>
			<g>
				<path class="st8" d="M820.7,638v104.1c0,33.4-27.3,60.7-60.7,60.7H655.8V638H820.7 M840.7,618h-20H655.8h-20v20v164.9v20h20
					h104.1c44.5,0,80.7-36.2,80.7-80.7V638V618L840.7,618z"/>
			</g>
		</g>
		<g class="st7">
			<g>
				<path class="st9" d="M270.7,812.9c-39,0-70.7-31.7-70.7-70.7V628h222.9v184.9H270.7z"/>
			</g>
			<g>
				<path class="st8" d="M412.9,638v164.9H270.7c-33.4,0-60.7-27.3-60.7-60.7V638H412.9 M432.9,618h-20H210h-20v20v104.1
					c0,44.5,36.2,80.7,80.7,80.7h142.2h20v-20V638V618L432.9,618z"/>
			</g>
		</g>
		<g class="st7">
			<g>
				<rect x="422.9" y="628" class="st10" width="222.9" height="184.9"/>
			</g>
			<g>
				<path class="st8" d="M635.8,638v164.9l-202.9,0V638l189.9,0H635.8 M655.8,618h-20h-13l-189.9,0h-20v20v164.9v20h20l202.9,0h20
					v-20V638V618L655.8,618z"/>
			</g>
		</g>
		<g class="st7">
			<g>
				<path class="st10" d="M645.8,405.1V182.2h114.1c39,0,70.7,31.7,70.7,70.7v152.2H645.8z"/>
			</g>
			<g>
				<path class="st8" d="M759.9,192.2c33.4,0,60.7,27.3,60.7,60.7v142.2H655.8V192.2H759.9 M759.9,172.2H655.8h-20v20v202.9v20h20
					h164.9h20v-20V253C840.7,208.5,804.4,172.2,759.9,172.2L759.9,172.2z"/>
			</g>
		</g>
		<g class="st7">
			<g>
				<rect x="645.8" y="405.1" class="st9" width="184.9" height="222.9"/>
			</g>
			<g>
				<path class="st8" d="M820.7,415.1V618H655.8v-52.8V415.1H820.7 M840.7,395.1h-20H655.8h-20v20v150.1V618v20h20h164.9h20v-20
					V415.1V395.1L840.7,395.1z"/>
			</g>
		</g>
		<g class="st7">
			<defs>
				<path id="SVGID_17_" d="M-245,1024h-574c-124.3,0-225-100.7-225-225V225c0-124.3,100.7-225,225-225h574
					C-120.7,0-20,100.7-20,225v574C-20,923.3-120.7,1024-245,1024"/>
			</defs>
			<clipPath id="SVGID_18_">
				<use xlink:href="#SVGID_17_"  style="overflow:visible;"/>
			</clipPath>
			<g class="st11">
				<g>
					<defs>
						<rect id="SVGID_19_" x="-834" y="192.2" width="834" height="880.5"/>
					</defs>
					<clipPath id="SVGID_20_">
						<use xlink:href="#SVGID_19_"  style="overflow:visible;"/>
					</clipPath>
					<g class="st12">
						<defs>
							<polygon id="SVGID_21_" points="-813.5,787.7 -528.4,1072.8 0,1031.2 -9.4,442.9 -236.4,215.9 -395,192.2 -699,192.2 
								-834,316.9 -834,644.5 							"/>
						</defs>
						<clipPath id="SVGID_22_">
							<use xlink:href="#SVGID_21_"  style="overflow:visible;"/>
						</clipPath>
						<defs>
							<filter id="Adobe_OpacityMaskFilter_1_" filterUnits="userSpaceOnUse" x="-1267.2" y="-218" width="1700.3" height="1701.1">
								<feColorMatrix  type="matrix" values="1 0 0 0 0  0 1 0 0 0  0 0 1 0 0  0 0 0 1 0"/>
							</filter>
						</defs>
						<mask maskUnits="userSpaceOnUse" x="-1267.2" y="-218" width="1700.3" height="1701.1" id="SVGID_23_">
							<g class="st13">
								
									<linearGradient id="SVGID_24_" gradientUnits="userSpaceOnUse" x1="1598.9481" y1="2089.5913" x2="1599.9481" y2="2089.5913" gradientTransform="matrix(-605.5482 -725.4587 -725.4587 605.5482 2484034.25 -104386.75)">
									<stop  offset="0" style="stop-color:#000000"/>
									<stop  offset="3.743610e-002" style="stop-color:#000000"/>
									<stop  offset="1" style="stop-color:#FFFFFF"/>
								</linearGradient>
								<polygon class="st14" points="-491.5,1483 -1267.2,553.8 -342.5,-218 433.2,711.2 								"/>
							</g>
						</mask>
						<g class="st15">
							<g>
								<defs>
									
										<rect id="SVGID_25_" x="-1022.2" y="30.3" transform="matrix(0.6408 0.7677 -0.7677 0.6408 335.7887 547.3215)" width="1210.4" height="1204.5"/>
								</defs>
								<clipPath id="SVGID_26_">
									<use xlink:href="#SVGID_25_"  style="overflow:visible;"/>
								</clipPath>
								<polygon class="st16" points="-708.2,1483 433.2,530.3 433.2,1483 								"/>
								<polygon class="st16" points="-763.4,1483 433.2,484.3 433.2,530.3 -708.2,1483 								"/>
								<polygon class="st16" points="-1267.2,718.7 -144.9,-218 433.2,-218 433.2,484.3 -763.4,1483 -1267.2,1483 								"/>
								<polygon class="st16" points="-144.9,-218 -1267.2,718.7 -1267.2,-218 								"/>
							</g>
						</g>
					</g>
				</g>
			</g>
		</g>
		<g class="st7">
			<path class="st9" d="M350.2,312c-11.3,0-21,4-29.1,11.9c-8,7.9-12.1,17.5-12.1,28.9v78.1h-41.8v-78.1c0-23.1,8-42.6,24.1-58.5
				c16.1-16,35.7-23.9,58.8-23.9V312z"/>
		</g>
		<g class="st7">
			<path class="st10" d="M536.8,472c0,29.7-12.2,52.6-36.5,68.7c-14,9.3-29.4,13.9-46.1,13.9c-29.3,0-52.2-12.3-68.7-36.8
				c-9.5-14.2-14.2-29.5-14.2-45.8c0-10.7,2.1-21,6.2-30.9l38.7,15.5c-2.1,5-3.1,10.1-3.1,15.5c0,11.3,4,21,12.1,28.9
				c8,7.9,17.7,11.9,29.1,11.9c11.1,0,20.7-4,28.8-12.1c8-8.1,12.1-17.7,12.1-28.9c0-18.2-8.5-31-25.6-38.2
				c-5.1,1.2-10.3,1.9-15.4,1.9c-23.3,0-42.8-8-58.8-24c-15.9-16-23.9-35.6-23.9-58.9c0-23.1,8-42.6,24-58.6c16-16,35.5-24,58.6-24
				l24.1-57.2l33,14L489.1,278c14.5,7,26.1,17.2,34.7,30.6c8.6,13.4,12.9,28,12.9,43.9c0,23.5-8.6,43.3-25.7,59.4
				C528.2,428.2,536.8,448.2,536.8,472 M495,352.6c0-11.1-4-20.7-12.1-28.8c-8-8-17.6-12.1-28.8-12.1c-11.3,0-21,4-29.1,11.9
				c-8,7.9-12.1,17.6-12.1,28.9c0,11.3,4,21,12.1,29.1c8,8,17.7,12.1,29.1,12.1c11.3,0,21-4,28.9-12.1
				C491,373.6,495,363.9,495,352.6"/>
		</g>
	</g>
</g>
<g>
	<linearGradient id="SVGID_27_" gradientUnits="userSpaceOnUse" x1="118.0469" y1="69.2935" x2="928.6278" y2="951.8057">
		<stop  offset="0" style="stop-color:#2F93CE"/>
		<stop  offset="0.2713" style="stop-color:#2F93CE"/>
		<stop  offset="1" style="stop-color:#2757AB"/>
	</linearGradient>
	<polygon class="st17" points="612.9,137.4 612.9,595.2 167,595.2 167,616.2 633.9,616.2 633.9,137.4 	"/>
</g>
</svg>
